<svg xmlns="http://www.w3.org/2000/svg" version="1.1" xmlns:xlink="http://www.w3.org/1999/xlink" xmlns:svgjs="http://svgjs.dev/svgjs" width="1800" height="4000" preserveAspectRatio="none" viewBox="0 0 1800 4000"><g mask="url(&quot;#SvgjsMask1076&quot;)" fill="none"><rect width="1800" height="4000" x="0" y="0" fill="rgba(23, 37, 84, 1)"></rect><path d="M0,1600.676C295.981,1618.951,538.337,1386.044,784.242,1220.304C1024.949,1058.068,1287.086,906.758,1415.672,646.516C1545.994,382.762,1490.717,79.481,1493.282,-214.702C1496.332,-564.462,1643.035,-961.913,1432.129,-1240.947C1221.704,-1519.344,802.727,-1496.86,463.202,-1577.522C142.112,-1653.805,-191.34,-1818.944,-499.093,-1699.756C-802.987,-1582.062,-901.416,-1212.295,-1115.122,-966.259C-1329.165,-719.835,-1723.481,-577.261,-1756.176,-252.5C-1789.028,73.815,-1467.249,317.728,-1270.829,580.368C-1113.314,790.987,-929.462,962.497,-724.377,1127.153C-494.783,1311.487,-293.876,1582.531,0,1600.676" fill="#0f1837"></path><path d="M1800 5128.305C2007.792 5123.776 2111.445 4867.601 2295.383 4770.83 2505.4539999999997 4660.3099999999995 2825.383 4727.512 2948.062 4524.302 3068.045 4325.558 2879.716 4079.236 2852.057 3848.737 2823.526 3610.971 2936.819 3331.766 2782.944 3148.274 2629.209 2964.949 2340.533 3004.7200000000003 2105.734 2958.764 1893.88 2917.299 1687.3319999999999 2854.795 1474.7269999999999 2892.2219999999998 1245.23 2932.623 1005.89 3003.563 852.88 3179.316 699.7550000000001 3355.202 687.969 3604.516 653.7760000000001 3835.198 619.4380000000001 4066.854 523.953 4328.524 653.6320000000001 4523.529 783.901 4719.421 1082.469 4682.9619999999995 1290.542 4792.733 1474.114 4889.5779999999995 1592.497 5132.8279999999995 1800 5128.305" fill="#1f3271"></path></g><defs><mask id="SvgjsMask1076"><rect width="1800" height="4000" fill="#ffffff"></rect></mask></defs></svg>